<svg width="168" height="24" viewBox="0 0 168 24" fill="none" xmlns="http://www.w3.org/2000/svg">
<path d="M9.87625 21V12.9492H7V9.75H9.87625V7.2293C9.87625 4.49063 11.6612 3 14.2675 3C15.5162 3 16.5887 3.08789 16.9 3.12656V5.98828H15.0925C13.675 5.98828 13.4012 6.62109 13.4012 7.5457V9.75H16.6L16.1612 12.9492H13.4012V21" fill="#363636"/>
<path fill-rule="evenodd" clip-rule="evenodd" d="M55 11.9255C55 8.99967 57 6.92554 60 6.92554C63.0017 6.92554 65 8.90735 65 12C65 15.0003 63.0017 16.9255 60.002 16.9255C57.0023 16.9255 55 15.0003 55 11.9255ZM57.0023 12C57.0023 13.6548 58.3516 15.0003 60.002 15.0003C61.6524 15.0003 63.0017 13.6548 63.0017 12C63.0017 10.3452 61.6564 8.99967 60.002 8.99967C58.3476 8.99967 57.0023 10.3452 57.0023 12ZM65.8047 8.27268C66.399 8.27268 66.8809 7.79471 66.8809 7.19625C66.8809 6.60181 66.399 6.11983 65.8047 6.11983C65.2104 6.11983 64.7285 6.60181 64.7285 7.19625C64.7285 7.7907 65.2064 8.27268 65.8047 8.27268ZM67.4831 4.51724C68.5392 5.56956 68.8685 6.84681 68.9368 8.28874C69.0211 9.77485 69.0211 14.2251 68.9368 15.7113C68.8645 17.1532 68.5352 18.4304 67.4831 19.4828C66.431 20.5391 65.154 20.8685 63.7124 20.9367C62.2267 21.0211 57.7733 21.0211 56.2876 20.9367C54.846 20.8644 53.573 20.5351 52.5169 19.4828C51.4608 18.4304 51.1315 17.1532 51.0632 15.7113C50.9789 14.2251 50.9789 9.77083 51.0632 8.28473C51.1355 6.8428 51.4608 5.56555 52.5169 4.51322C53.573 3.46089 54.85 3.13154 56.2876 3.06326C57.7733 2.97891 62.2267 2.97891 63.7124 3.06326C65.154 3.13556 66.431 3.46491 67.4831 4.51724Z" fill="#363636"/>
<path d="M118.499 7.89512C118.65 7.3795 118.499 7 117.772 7H115.366C114.754 7 114.472 7.32587 114.321 7.68887C114.321 7.68887 113.095 10.7042 111.364 12.6595C110.804 13.2246 110.547 13.4061 110.241 13.4061C110.089 13.4061 109.857 13.2246 109.857 12.709V7.89512C109.857 7.27637 109.685 7 109.179 7H105.397C105.013 7 104.784 7.28875 104.784 7.55687C104.784 8.14262 105.65 8.27875 105.74 9.92875V13.5092C105.74 14.293 105.601 14.4374 105.295 14.4374C104.478 14.4374 102.493 11.4096 101.317 7.94463C101.08 7.27225 100.847 7 100.231 7H97.825C97.1389 7 97 7.32587 97 7.68887C97 8.33237 97.8168 11.5293 100.802 15.7533C102.791 18.6366 105.593 20.2 108.141 20.2C109.673 20.2 109.861 19.8535 109.861 19.2554C109.861 16.4999 109.722 16.24 110.49 16.24C110.845 16.24 111.458 16.4215 112.887 17.8116C114.521 19.4616 114.79 20.2 115.705 20.2H118.111C118.797 20.2 119.144 19.8535 118.944 19.1687C118.486 17.7291 115.395 14.7674 115.256 14.5694C114.901 14.1074 115.003 13.9011 115.256 13.4886C115.26 13.4845 118.196 9.31 118.499 7.89512Z" fill="#363636"/>
<path d="M151.029 21H147.297V8.31495H151.029V21ZM149.161 6.5846C147.968 6.5846 147 5.54129 147 4.2817C147 3.0221 147.968 2 149.161 2C150.354 2 151.322 3.0221 151.322 4.2817C151.322 5.54129 150.354 6.5846 149.161 6.5846ZM164.996 21H161.272V14.825C161.272 13.3533 161.244 11.4661 159.332 11.4661C157.392 11.4661 157.095 13.065 157.095 14.719V21H153.367V8.31495H156.946V10.0453H156.998C157.496 9.04866 158.713 7.99687 160.529 7.99687C164.305 7.99687 165 10.6221 165 14.0319V21H164.996Z" fill="#363636"/>
</svg>
